HIERARCHY
ROOT Hips
{
 OFFSET 0.000000 0.000000 0.000000
 CHANNELS 6 Xposition Yposition Zposition Yrotation Xrotation Zrotation
 JOINT Chest
 {
  OFFSET 0.000000 9.585900 0.002600
  CHANNELS 3 Yrotation Xrotation Zrotation
  JOINT Chest2
  {
   OFFSET 0.000000 9.601200 -0.005300
   CHANNELS 3 Yrotation Xrotation Zrotation
   JOINT Chest3
   {
    OFFSET 0.000000 9.561800 0.000000
    CHANNELS 3 Yrotation Xrotation Zrotation
    JOINT Chest4
    {
     OFFSET 0.000000 9.552100 0.000000
     CHANNELS 3 Yrotation Xrotation Zrotation
     JOINT Neck
     {
      OFFSET 0.000000 14.453000 0.000000
      CHANNELS 3 Yrotation Xrotation Zrotation
      JOINT Head
      {
       OFFSET 0.000000 8.936500 -0.011300
       CHANNELS 3 Yrotation Xrotation Zrotation
       End Site
       {
        OFFSET 0.000000 17.073600 -0.006000
       }
      }
     }
     JOINT RightCollar
     {
      OFFSET -2.921100 9.558500 0.000000
      CHANNELS 3 Yrotation Xrotation Zrotation
      JOINT RightShoulder
      {
       OFFSET -13.519700 0.000000 0.000000
       CHANNELS 3 Yrotation Xrotation Zrotation
       JOINT RightElbow
       {
        OFFSET 0.000000 -29.696600 0.000000
        CHANNELS 3 Yrotation Xrotation Zrotation
        JOINT RightWrist
        {
         OFFSET 0.000000 -24.004700 0.000000
         CHANNELS 3 Yrotation Xrotation Zrotation
         End Site
         {
          OFFSET 0.000000 -17.728500 0.000000
         }
        }
       }
      }
     }
     JOINT LeftCollar
     {
      OFFSET 2.921100 9.558500 0.000000
      CHANNELS 3 Yrotation Xrotation Zrotation
      JOINT LeftShoulder
      {
       OFFSET 13.519700 0.000000 0.000000
       CHANNELS 3 Yrotation Xrotation Zrotation
       JOINT LeftElbow
       {
        OFFSET 0.000000 -29.696600 0.000000
        CHANNELS 3 Yrotation Xrotation Zrotation
        JOINT LeftWrist
        {
         OFFSET 0.000000 -24.004700 0.000000
         CHANNELS 3 Yrotation Xrotation Zrotation
         End Site
         {
          OFFSET 0.000000 -17.728500 0.000000
         }
        }
       }
      }
     }
    }
   }
  }
 }
 JOINT RightHip
 {
  OFFSET -7.771700 -0.012900 -0.001300
  CHANNELS 3 Yrotation Xrotation Zrotation
  JOINT RightKnee
  {
   OFFSET 0.000000 -40.869800 0.001200
   CHANNELS 3 Yrotation Xrotation Zrotation
   JOINT RightAnkle
   {
    OFFSET 0.000000 -39.717900 0.002100
    CHANNELS 3 Yrotation Xrotation Zrotation
    JOINT RightToe
    {
     OFFSET 0.000000 -4.965400 11.033500
     CHANNELS 3 Yrotation Xrotation Zrotation
     End Site
     {
      OFFSET 0.000000 -1.423100 5.872300
     }
    }
   }
  }
 }
 JOINT LeftHip
 {
  OFFSET 7.771700 -0.012900 -0.001300
  CHANNELS 3 Yrotation Xrotation Zrotation
  JOINT LeftKnee
  {
   OFFSET 0.000000 -40.869800 0.001200
   CHANNELS 3 Yrotation Xrotation Zrotation
   JOINT LeftAnkle
   {
    OFFSET 0.000000 -39.717900 0.002100
    CHANNELS 3 Yrotation Xrotation Zrotation
    JOINT LeftToe
    {
     OFFSET 0.000000 -4.965400 11.033500
     CHANNELS 3 Yrotation Xrotation Zrotation
     End Site
     {
      OFFSET 0.000000 -1.423100 5.872300
     }
    }
   }
  }
 }
}
MOTION
Frames: 16
Frame Time: 0.008333
-40.596933 56.371447 -9.176424 -179.515765 -13.483594 -0.412948 0.873516 13.407332 -1.660448 0.114290 1.110089 -0.105048 0.158523 1.870047 -0.158710 0.917865 12.149115 -0.928975 -0.861772 13.399081 5.883054 -2.265555 -11.632295 6.511873 -0.964776 -1.906025 1.678024 2.922067 -7.194246 -7.331379 -75.353963 -55.320723 114.696991 -16.106948 -12.969254 -9.702203 -5.242070 -4.117164 3.068201 3.570155 -9.113226 7.094267 70.593234 -49.243278 -115.589968 8.938076 -11.743473 13.076457 -4.936787 -61.229071 13.203324 -34.665024 84.894886 -38.248099 -10.081837 -19.218666 15.565437 0.276573 -0.372585 0.069028 18.594755 -56.212079 -21.334046 68.336984 70.953143 69.862424 -6.512748 -14.889100 0.816568 0.220246 0.744146 0.092369
-40.596133 56.373913 -9.175744 -179.521060 -13.491935 -0.410639 0.856268 13.407675 -1.654639 0.115683 1.109687 -0.105812 0.156803 1.871764 -0.157528 0.902910 12.155687 -0.920321 -0.824237 13.345674 5.840270 -2.219373 -11.684959 6.456758 -0.940505 -1.906900 1.666404 2.893553 -7.202027 -7.288722 -75.362678 -55.335386 114.689057 -16.094149 -13.041397 -9.722235 -5.220104 -4.120821 3.042505 3.491492 -9.120743 7.097119 70.511355 -49.252153 -115.562365 8.908189 -11.773774 13.119179 -4.970601 -61.215394 13.229305 -34.615365 84.886301 -38.197691 -10.120564 -19.188560 15.575711 0.251836 -0.380445 0.068695 18.605575 -56.200746 -21.333850 68.325998 70.950174 69.853493 -6.515049 -14.883259 0.815313 0.225095 0.739719 0.097562
-40.596035 56.376971 -9.176824 -179.527494 -13.507284 -0.403932 0.840397 13.417630 -1.651787 0.095350 1.104467 -0.095675 0.170649 1.876644 -0.166637 0.889704 12.163723 -0.913089 -0.778997 13.248446 5.784431 -2.185826 -11.690335 6.411414 -0.913671 -1.910204 1.654492 2.856413 -7.212622 -7.233967 -75.321056 -55.379122 114.663287 -16.088616 -13.148391 -9.760553 -5.235870 -4.125024 3.027381 3.448462 -9.127058 7.094747 70.466037 -49.264761 -115.534151 8.896076 -11.780276 13.136088 -4.994362 -61.189605 13.242180 -34.471792 84.882409 -38.063712 -10.116642 -19.181136 15.571083 0.228259 -0.387295 0.062107 18.617236 -56.179250 -21.334146 68.307477 70.950363 69.837645 -6.520279 -14.879051 0.814947 0.231354 0.735849 0.100390
-40.595110 56.380107 -9.177624 -179.532146 -13.516924 -0.402819 0.830534 13.425138 -1.644860 0.103943 1.105007 -0.102503 0.129472 1.875820 -0.138611 0.890465 12.170185 -0.923036 -0.742968 13.212171 5.742165 -2.132017 -11.751315 6.348467 -0.897702 -1.920422 1.657224 2.843930 -7.213783 -7.209133 -75.352737 -55.378983 114.665466 -16.076811 -13.211046 -9.785198 -5.295904 -4.132017 3.020411 3.451693 -9.126781 7.088829 70.445107 -49.276753 -115.508994 8.893323 -11.769433 13.137480 -5.062207 -61.164844 13.284932 -34.234370 84.883021 -37.851834 -10.066313 -19.176414 15.557967 0.253215 -0.384466 0.065242 18.625072 -56.162686 -21.328877 68.285855 70.953029 69.820771 -6.528816 -14.885809 0.813172 0.239158 0.741018 0.104719
-40.594053 56.383103 -9.177307 -179.530318 -13.515666 -0.404487 0.824385 13.423591 -1.641167 0.088707 1.105250 -0.091327 0.123639 1.876266 -0.136623 0.870244 12.173473 -0.916464 -0.708483 13.197551 5.704514 -2.072071 -11.829088 6.276807 -0.872715 -1.927539 1.661273 2.833474 -7.215178 -7.201005 -75.396732 -55.368519 114.673168 -16.065504 -13.271028 -9.805739 -5.327051 -4.134860 3.002360 3.428322 -9.130326 7.089905 70.416657 -49.291208 -115.480503 8.892283 -11.758906 13.135682 -5.116193 -61.157357 13.310251 -34.108407 84.880496 -37.733462 -10.010405 -19.160972 15.540061 0.264868 -0.391685 0.068729 18.623132 -56.162332 -21.327088 68.275519 70.950030 69.809073 -6.523507 -14.879889 0.812007 0.231075 0.737540 0.105882
-40.592319 56.386564 -9.178495 -179.530076 -13.519768 -0.410710 0.804096 13.426593 -1.624895 0.086743 1.105613 -0.090514 0.120088 1.876297 -0.135157 0.850415 12.176770 -0.909318 -0.671734 13.153215 5.656242 -2.021051 -11.872837 6.212960 -0.852590 -1.933014 1.664104 2.848540 -7.213430 -7.222797 -75.457317 -55.339711 114.686405 -16.055192 -13.333016 -9.822147 -5.312167 -4.140112 2.973238 3.357454 -9.133558 7.099305 70.377177 -49.305231 -115.444947 8.888975 -11.748169 13.131134 -5.145883 -61.149127 13.324470 -34.035769 84.879833 -37.660185 -9.965484 -19.133175 15.545676 0.292812 -0.406852 0.059192 18.610534 -56.160082 -21.304768 68.279904 70.952312 69.805452 -6.528135 -14.877050 0.817388 0.230469 0.732863 0.105980
-40.592003 56.390336 -9.180724 -179.531562 -13.526708 -0.409186 0.767052 13.429577 -1.608516 0.099156 1.107804 -0.101459 0.119810 1.876278 -0.132460 0.850083 12.179203 -0.915780 -0.649861 13.095782 5.618408 -1.977781 -11.896779 6.155676 -0.863327 -1.927499 1.714626 2.811553 -7.225215 -7.189998 -75.405520 -55.395363 114.661010 -16.052590 -13.397042 -9.838471 -5.317837 -4.141950 2.960018 3.281257 -9.136975 7.113104 70.336602 -49.316781 -115.403822 8.881958 -11.733083 13.125964 -5.159464 -61.136772 13.328793 -34.020516 84.875224 -37.643062 -9.960271 -19.116922 15.547876 0.295400 -0.409868 0.060389 18.607780 -56.152438 -21.295817 68.286034 70.955658 69.805816 -6.528654 -14.871502 0.819608 0.228786 0.725168 0.106049
-40.591354 56.394192 -9.183227 -179.531994 -13.532113 -0.411197 0.763087 13.434202 -1.603505 0.083044 1.106557 -0.088765 0.128542 1.877585 -0.139826 0.839848 12.181000 -0.911539 -0.632553 13.075783 5.593023 -1.929001 -11.952968 6.084010 -0.847987 -1.928007 1.705561 2.765684 -7.229419 -7.127339 -75.403671 -55.411303 114.651794 -16.048542 -13.436959 -9.847830 -5.353979 -4.139524 2.956947 3.233449 -9.143015 7.119793 70.300137 -49.329404 -115.359774 8.874702 -11.710018 13.120230 -5.198209 -61.122579 13.347634 -33.942698 84.873620 -37.571370 -9.931667 -19.104017 15.547386 0.260869 -0.419881 0.055165 18.602019 -56.146865 -21.281625 68.290736 70.959599 69.806400 -6.535498 -14.867576 0.820410 0.234548 0.718121 0.108546
-40.590892 56.397939 -9.185499 -179.529928 -13.533482 -0.414068 0.741865 13.433865 -1.589039 0.061481 1.104616 -0.071147 0.156533 1.880157 -0.164890 0.813591 12.181811 -0.890615 -0.603839 13.040889 5.541088 -1.886141 -11.988336 6.015299 -0.841349 -1.918450 1.700846 2.758987 -7.237038 -7.103031 -75.438157 -55.403850 114.654280 -16.039479 -13.459879 -9.848306 -5.368204 -4.132666 2.933360 3.181582 -9.156505 7.125979 70.323359 -49.332912 -115.323515 8.878277 -11.632640 13.087146 -5.240996 -61.111523 13.370955 -33.867855 84.871805 -37.504913 -9.915375 -19.092332 15.550405 0.279100 -0.420364 0.055376 18.595529 -56.144274 -21.272488 68.288633 70.961301 69.802347 -6.538232 -14.864159 0.821281 0.237358 0.713443 0.109145
-40.591169 56.401525 -9.187723 -179.529338 -13.532665 -0.413560 0.721816 13.430234 -1.579340 0.060805 1.105451 -0.068230 0.153583 1.879222 -0.164891 0.799746 12.182462 -0.879732 -0.573429 12.980004 5.473576 -1.855502 -11.988503 5.962718 -0.830032 -1.906843 1.697216 2.741301 -7.238495 -7.078460 -75.465204 -55.413491 114.663011 -16.033748 -13.496441 -9.851922 -5.443092 -4.115181 2.924334 3.190006 -9.175402 7.123335 70.267467 -49.363671 -115.272415 8.871699 -11.610040 13.093664 -5.303814 -61.094639 13.400955 -33.617057 84.872125 -37.271470 -9.894974 -19.097837 15.545656 0.284896 -0.406074 0.056470 18.595855 -56.143871 -21.272273 68.291986 70.961749 69.803260 -6.536222 -14.856816 0.823428 0.234188 0.704500 0.108082
-40.591419 56.405203 -9.191363 -179.537494 -13.539364 -0.412513 0.710690 13.435613 -1.565580 0.059420 1.104198 -0.067261 0.151125 1.880951 -0.162949 0.784781 12.184319 -0.869302 -0.545968 12.951027 5.420218 -1.815764 -12.017574 5.893544 -0.838808 -1.882687 1.724260 2.752915 -7.247760 -7.091419 -75.508863 -55.425277 114.684862 -16.025435 -13.530682 -9.858634 -5.435337 -4.116287 2.893959 3.116291 -9.183638 7.137575 70.211744 -49.399047 -115.223558 8.864132 -11.585536 13.101108 -5.307929 -61.080130 13.405017 -33.534382 84.868595 -37.190683 -9.907922 -19.088621 15.552801 0.260712 -0.406133 0.060465 18.595484 -56.135654 -21.261348 68.292867 70.972715 69.801842 -6.530458 -14.857260 0.825630 0.235187 0.698959 0.106980
-40.592009 56.408346 -9.194299 -179.538393 -13.540990 -0.412206 0.694834 13.434304 -1.552851 0.053929 1.103591 -0.065990 0.152914 1.881446 -0.160067 0.770885 12.184940 -0.853751 -0.525629 12.939391 5.368751 -1.796189 -12.031137 5.858902 -0.829022 -1.868264 1.711372 2.759149 -7.251462 -7.097522 -75.575347 -55.417978 114.708141 -16.017636 -13.566836 -9.868639 -5.430114 -4.115417 2.860151 3.043478 -9.190324 7.152162 70.182345 -49.426471 -115.182671 8.852814 -11.541212 13.098508 -5.318048 -61.074288 13.408984 -33.522274 84.865902 -37.166446 -9.971896 -19.066070 15.576647 0.255426 -0.403208 0.060560 18.583284 -56.129355 -21.243639 68.288186 70.970746 69.789970 -6.552318 -14.865748 0.826920 0.245491 0.705835 0.110151
-40.592524 56.410939 -9.197006 -179.547186 -13.540905 -0.411438 0.678834 13.431389 -1.540491 0.057503 1.102221 -0.065221 0.147005 1.882107 -0.157166 0.763277 12.184426 -0.840142 -0.504760 12.929710 5.319154 -1.776707 -12.043661 5.824660 -0.809120 -1.858724 1.684755 2.756237 -7.250073 -7.088869 -75.606583 -55.428205 114.723327 -16.004334 -13.636994 -9.893421 -5.446365 -4.103242 2.843124 2.996254 -9.203586 7.152345 70.156225 -49.453306 -115.144345 8.837544 -11.494657 13.094951 -5.346695 -61.063825 13.430441 -33.391865 84.861985 -37.037900 -10.010471 -19.057793 15.592144 0.242517 -0.395314 0.055846 18.583343 -56.129017 -21.235485 68.298715 70.969453 69.795309 -6.551205 -14.865969 0.829526 0.242651 0.702297 0.108281
-40.593114 56.412993 -9.199760 -179.556802 -13.540905 -0.410818 0.651476 13.425227 -1.514881 0.083696 1.105723 -0.089090 0.135863 1.877489 -0.146759 0.732070 12.179621 -0.810454 -0.470393 12.914132 5.238596 -1.740149 -12.063686 5.758491 -0.769713 -1.842774 1.640185 2.734886 -7.244161 -7.062259 -75.685607 -55.445606 114.763012 -15.992772 -13.665346 -9.897610 -5.439909 -4.080467 2.805810 2.948389 -9.220338 7.153102 70.185203 -49.460519 -115.118431 8.827813 -11.405969 13.063979 -5.351212 -61.058717 13.433991 -33.311813 84.861009 -36.953759 -10.020631 -19.049462 15.590958 0.276167 -0.387704 0.067102 18.581635 -56.128304 -21.227086 68.310612 70.968580 69.802313 -6.546447 -14.870497 0.832948 0.238283 0.701833 0.103933
-40.592825 56.414449 -9.202538 -179.570647 -13.540858 -0.415080 0.652521 13.424355 -1.498936 0.087906 1.105242 -0.092018 0.109882 1.875500 -0.123173 0.727721 12.180496 -0.808978 -0.440823 12.876626 5.160944 -1.680850 -12.094541 5.652276 -0.750473 -1.829720 1.624554 2.691769 -7.222685 -7.013076 -75.762044 -55.502433 114.833081 -15.979474 -13.694758 -9.903669 -5.471644 -4.046362 2.809740 2.931895 -9.252670 7.129875 70.135316 -49.488665 -115.081816 8.815192 -11.385144 13.070013 -5.373334 -61.051350 13.452591 -33.222707 84.858959 -36.872330 -9.970863 -19.045215 15.585633 0.277606 -0.388789 0.069589 18.574931 -56.130715 -21.208780 68.325984 70.970454 69.816280 -6.543476 -14.877830 0.831870 0.242222 0.702578 0.102471
-40.592711 56.415479 -9.206042 -179.581846 -13.545035 -0.419370 0.648866 13.430262 -1.479677 0.084095 1.102696 -0.092177 0.123513 1.875560 -0.134846 0.712078 12.181512 -0.791921 -0.424085 12.859700 5.119744 -1.635024 -12.124260 5.571482 -0.741657 -1.819370 1.626840 2.675474 -7.214771 -7.008544 -75.813159 -55.526348 114.878152 -15.966716 -13.727275 -9.913599 -5.459954 -4.044729 2.790824 2.856844 -9.257158 7.141436 70.081229 -49.511596 -115.050250 8.805629 -11.372528 13.079598 -5.396305 -61.039312 13.461283 -33.085794 84.861383 -36.736216 -9.918091 -19.046263 15.580436 0.251878 -0.396414 0.056804 18.565739 -56.130831 -21.190475 68.348139 70.974944 69.839587 -6.543922 -14.882762 0.828418 0.250307 0.699839 0.103163
